<?xml version="1.0" encoding="UTF-8"?>
<!DOCTYPE svg PUBLIC "-//W3C//DTD SVG 1.0//EN" "http://www.w3.org/TR/2001/REC-SVG-20010904/DTD/svg10.dtd"><svg contentScriptType="text/ecmascript" width="750" xmlns:xlink="http://www.w3.org/1999/xlink" zoomAndPan="magnify" contentStyleType="text/css" height="600" preserveAspectRatio="xMidYMid meet" xmlns="http://www.w3.org/2000/svg" version="1.0"><text x="20" y="70" style="font-size:14px;fill:black;font-family:Arial" text-anchor="middle">1.12</text><text x="20" y="310" style="font-size:14px;fill:black;font-family:Arial" text-anchor="middle">0.38</text><text x="61.5" y="565" style="font-size:14px;fill:black;font-family:Arial" text-anchor="middle">-14</text><path style="fill:none;fill-rule:evenodd;stroke:#000000;stroke-width:1px;stroke-linecap:butt;stroke-linejoin:miter;stroke-opacity:1" d="M  72.0,570 L 72.0,550"/><text x="84.5" y="565" style="font-size:14px;fill:black;font-family:Arial" text-anchor="middle">-13</text><path style="fill:none;fill-rule:evenodd;stroke:#000000;stroke-width:1px;stroke-linecap:butt;stroke-linejoin:miter;stroke-opacity:1" d="M  95.0,570 L 95.0,550"/><text x="107.5" y="565" style="font-size:14px;fill:black;font-family:Arial" text-anchor="middle">-12</text><path style="fill:none;fill-rule:evenodd;stroke:#000000;stroke-width:1px;stroke-linecap:butt;stroke-linejoin:miter;stroke-opacity:1" d="M  118.0,570 L 118.0,550"/><text x="130.5" y="565" style="font-size:14px;fill:black;font-family:Arial" text-anchor="middle">-11</text><path style="fill:none;fill-rule:evenodd;stroke:#000000;stroke-width:1px;stroke-linecap:butt;stroke-linejoin:miter;stroke-opacity:1" d="M  141.0,570 L 141.0,550"/><text x="153.5" y="565" style="font-size:14px;fill:black;font-family:Arial" text-anchor="middle">-10</text><path style="fill:none;fill-rule:evenodd;stroke:#000000;stroke-width:1px;stroke-linecap:butt;stroke-linejoin:miter;stroke-opacity:1" d="M  164.0,570 L 164.0,550"/><text x="176.5" y="565" style="font-size:14px;fill:black;font-family:Arial" text-anchor="middle">-9</text><path style="fill:none;fill-rule:evenodd;stroke:#000000;stroke-width:1px;stroke-linecap:butt;stroke-linejoin:miter;stroke-opacity:1" d="M  187.0,570 L 187.0,550"/><text x="199.5" y="565" style="font-size:14px;fill:black;font-family:Arial" text-anchor="middle">-8</text><path style="fill:none;fill-rule:evenodd;stroke:#000000;stroke-width:1px;stroke-linecap:butt;stroke-linejoin:miter;stroke-opacity:1" d="M  210.0,570 L 210.0,550"/><text x="222.5" y="565" style="font-size:14px;fill:black;font-family:Arial" text-anchor="middle">-7</text><path style="fill:none;fill-rule:evenodd;stroke:#000000;stroke-width:1px;stroke-linecap:butt;stroke-linejoin:miter;stroke-opacity:1" d="M  233.0,570 L 233.0,550"/><text x="245.5" y="565" style="font-size:14px;fill:black;font-family:Arial" text-anchor="middle">-6</text><path style="fill:none;fill-rule:evenodd;stroke:#000000;stroke-width:1px;stroke-linecap:butt;stroke-linejoin:miter;stroke-opacity:1" d="M  256.0,570 L 256.0,550"/><text x="268.5" y="565" style="font-size:14px;fill:black;font-family:Arial" text-anchor="middle">-5</text><path style="fill:none;fill-rule:evenodd;stroke:#000000;stroke-width:1px;stroke-linecap:butt;stroke-linejoin:miter;stroke-opacity:1" d="M  279.0,570 L 279.0,550"/><text x="291.5" y="565" style="font-size:14px;fill:black;font-family:Arial" text-anchor="middle">-4</text><path style="fill:none;fill-rule:evenodd;stroke:#000000;stroke-width:1px;stroke-linecap:butt;stroke-linejoin:miter;stroke-opacity:1" d="M  302.0,570 L 302.0,550"/><text x="314.5" y="565" style="font-size:14px;fill:black;font-family:Arial" text-anchor="middle">-3</text><path style="fill:none;fill-rule:evenodd;stroke:#000000;stroke-width:1px;stroke-linecap:butt;stroke-linejoin:miter;stroke-opacity:1" d="M  325.0,570 L 325.0,550"/><text x="337.5" y="565" style="font-size:14px;fill:black;font-family:Arial" text-anchor="middle">-2</text><path style="fill:none;fill-rule:evenodd;stroke:#000000;stroke-width:1px;stroke-linecap:butt;stroke-linejoin:miter;stroke-opacity:1" d="M  348.0,570 L 348.0,550"/><text x="360.5" y="565" style="font-size:14px;fill:black;font-family:Arial" text-anchor="middle">-1</text><path style="fill:none;fill-rule:evenodd;stroke:#000000;stroke-width:1px;stroke-linecap:butt;stroke-linejoin:miter;stroke-opacity:1" d="M  371.0,570 L 371.0,550"/><text x="383.5" y="565" style="font-size:14px;fill:black;font-family:Arial" text-anchor="middle">0</text><path style="fill:none;fill-rule:evenodd;stroke:#000000;stroke-width:1px;stroke-linecap:butt;stroke-linejoin:miter;stroke-opacity:1" d="M  394.0,570 L 394.0,550"/><text x="406.5" y="565" style="font-size:14px;fill:black;font-family:Arial" text-anchor="middle">1</text><path style="fill:none;fill-rule:evenodd;stroke:#000000;stroke-width:1px;stroke-linecap:butt;stroke-linejoin:miter;stroke-opacity:1" d="M  417.0,570 L 417.0,550"/><text x="429.5" y="565" style="font-size:14px;fill:black;font-family:Arial" text-anchor="middle">2</text><path style="fill:none;fill-rule:evenodd;stroke:#000000;stroke-width:1px;stroke-linecap:butt;stroke-linejoin:miter;stroke-opacity:1" d="M  440.0,570 L 440.0,550"/><text x="452.5" y="565" style="font-size:14px;fill:black;font-family:Arial" text-anchor="middle">3</text><path style="fill:none;fill-rule:evenodd;stroke:#000000;stroke-width:1px;stroke-linecap:butt;stroke-linejoin:miter;stroke-opacity:1" d="M  463.0,570 L 463.0,550"/><text x="475.5" y="565" style="font-size:14px;fill:black;font-family:Arial" text-anchor="middle">4</text><path style="fill:none;fill-rule:evenodd;stroke:#000000;stroke-width:1px;stroke-linecap:butt;stroke-linejoin:miter;stroke-opacity:1" d="M  486.0,570 L 486.0,550"/><text x="498.5" y="565" style="font-size:14px;fill:black;font-family:Arial" text-anchor="middle">5</text><path style="fill:none;fill-rule:evenodd;stroke:#000000;stroke-width:1px;stroke-linecap:butt;stroke-linejoin:miter;stroke-opacity:1" d="M  509.0,570 L 509.0,550"/><text x="521.5" y="565" style="font-size:14px;fill:black;font-family:Arial" text-anchor="middle">6</text><path style="fill:none;fill-rule:evenodd;stroke:#000000;stroke-width:1px;stroke-linecap:butt;stroke-linejoin:miter;stroke-opacity:1" d="M  532.0,570 L 532.0,550"/><text x="544.5" y="565" style="font-size:14px;fill:black;font-family:Arial" text-anchor="middle">7</text><path style="fill:none;fill-rule:evenodd;stroke:#000000;stroke-width:1px;stroke-linecap:butt;stroke-linejoin:miter;stroke-opacity:1" d="M  555.0,570 L 555.0,550"/><text x="567.5" y="565" style="font-size:14px;fill:black;font-family:Arial" text-anchor="middle">8</text><path style="fill:none;fill-rule:evenodd;stroke:#000000;stroke-width:1px;stroke-linecap:butt;stroke-linejoin:miter;stroke-opacity:1" d="M  578.0,570 L 578.0,550"/><text x="590.5" y="565" style="font-size:14px;fill:black;font-family:Arial" text-anchor="middle">9</text><path style="fill:none;fill-rule:evenodd;stroke:#000000;stroke-width:1px;stroke-linecap:butt;stroke-linejoin:miter;stroke-opacity:1" d="M  601.0,570 L 601.0,550"/><text x="613.5" y="565" style="font-size:14px;fill:black;font-family:Arial" text-anchor="middle">10</text><path style="fill:none;fill-rule:evenodd;stroke:#000000;stroke-width:1px;stroke-linecap:butt;stroke-linejoin:miter;stroke-opacity:1" d="M  624.0,570 L 624.0,550"/><text x="636.5" y="565" style="font-size:14px;fill:black;font-family:Arial" text-anchor="middle">11</text><path style="fill:none;fill-rule:evenodd;stroke:#000000;stroke-width:1px;stroke-linecap:butt;stroke-linejoin:miter;stroke-opacity:1" d="M  647.0,570 L 647.0,550"/><text x="659.5" y="565" style="font-size:14px;fill:black;font-family:Arial" text-anchor="middle">12</text><path style="fill:none;fill-rule:evenodd;stroke:#000000;stroke-width:1px;stroke-linecap:butt;stroke-linejoin:miter;stroke-opacity:1" d="M  670.0,570 L 670.0,550"/><text x="682.5" y="565" style="font-size:14px;fill:black;font-family:Arial" text-anchor="middle">13</text><path style="fill:none;fill-rule:evenodd;stroke:#000000;stroke-width:1px;stroke-linecap:butt;stroke-linejoin:miter;stroke-opacity:1" d="M  693.0,570 L 693.0,550"/><text x="705.5" y="565" style="font-size:14px;fill:black;font-family:Arial" text-anchor="middle">14</text><path style="fill:none;fill-rule:evenodd;stroke:#000000;stroke-width:1px;stroke-linecap:butt;stroke-linejoin:miter;stroke-opacity:1" d="M  716.0,570 L 716.0,550"/><text x="728.5" y="565" style="font-size:14px;fill:black;font-family:Arial" text-anchor="middle">15</text><path style="fill:none;fill-rule:evenodd;stroke:#000000;stroke-width:1px;stroke-linecap:butt;stroke-linejoin:miter;stroke-opacity:1" d="M  739.0,570 L 739.0,550"/><rect x="49" width="1" y="50" height="520" style="fill:black"/><rect x="49" width="690.0" y="550" height="1" style="fill:black"/><rect x="49" width="690.0" y="570" height="1" style="fill:black"/><path style="fill:none;fill-rule:evenodd;stroke:#000000;stroke-width:1px;stroke-linecap:butt;stroke-linejoin:miter;stroke-opacity:1" d="M  44.5,54 L 49.5,50 L 54.5,54"/><path style="fill:none;fill-rule:evenodd;stroke:#000000;stroke-width:1px;stroke-linecap:butt;stroke-linejoin:miter;stroke-opacity:1" d="M  49,70 L 44,70 L 44,70"/><path style="fill:none;fill-rule:evenodd;stroke:#000000;stroke-width:1px;stroke-linecap:butt;stroke-linejoin:miter;stroke-opacity:1" d="M  49,310 L 44,310"/><text x="400" y="25" style="font-size:14px;fill:black;font-family:Arial" text-anchor="middle">BLOSUM62 substitution matrix (Henikoff-Henikoff, 1992)</text><path style="fill:#c3c3c3;fill-rule:evenodd;stroke:#000000;stroke-width:0.9;stroke-linecap:butt;stroke-linejoin:miter;stroke-opacity:1;fill-opacity:1;opacity:0.27;stroke-miterlimit:4;stroke-dasharray:none" d="M  61.5,472.2697451727354 L 84.5,474.25625813514375 L 107.5,474.33924891503375 L 130.5,474.8780478532027 L 153.5,475.3650982712125 L 176.5,473.3100388177578 L 199.5,472.94371271890685 L 222.5,474.9818016326184 L 245.5,472.5960359062701 L 268.5,475.6773320347157 L 291.5,475.51938606996487 L 314.5,478.98881512009666 L 337.5,473.14726176618797 L 360.5,474.01165274881265 L 383.5,473.82917355217495 L 406.5,472.42319269690273 L 429.5,472.12714785405274 L 452.5,472.601598677452 L 475.5,471.71180707047176 L 498.5,475.35995694496864 L 521.5,471.2159033195033 L 544.5,474.06944306091077 L 567.5,475.7772333468309 L 590.5,470.9475862934794 L 613.5,476.43344480515907 L 636.5,471.65003812260807 L 659.5,474.1042609729733 L 682.5,473.84547628843404 L 705.5,475.8624062208529 L 728.5,474.8124853558805 L 728.5,508.4146005507869 L 705.5,505.64759870190653 L 682.5,508.2770206798924 L 659.5,509.0243053215998 L 636.5,508.6381312280613 L 613.5,508.1250172546754 L 590.5,507.9278861269591 L 567.5,507.08141838201317 L 544.5,506.29931653579 L 521.5,509.6570137419036 L 498.5,505.8692053433 L 475.5,507.5254503023908 L 452.5,508.4082778888442 L 429.5,509.42082387350047 L 406.5,509.00266018078173 L 383.5,507.53236240494925 L 360.5,506.7027523222101 L 337.5,509.1209746168674 L 314.5,506.0584613334298 L 291.5,507.6511604454629 L 268.5,507.85450597251827 L 245.5,506.1643028264951 L 222.5,507.2795385295985 L 199.5,509.4007812276799 L 176.5,507.2769574507996 L 153.5,508.3080561810709 L 130.5,507.7338576906882 L 107.5,509.04423760052293 L 84.5,507.9078333968776 L 61.5,509.4336832996411 z "/><path style="fill:none;fill-rule:evenodd;stroke:#00ff00;stroke-width:3;stroke-linecap:butt;stroke-linejoin:miter;stroke-opacity:1;stroke-miterlimit:4;stroke-dasharray:none" d="M  61.5,482.97729007447674 L 84.5,482.0478246479498 L 107.5,490.6082198244276 L 130.5,474.80901695545 L 153.5,490.70262011438484 L 176.5,481.3916188916189 L 199.5,486.0380242733184 L 222.5,478.9759822848058 L 245.5,478.3958184693479 L 268.5,479.81582135993904 L 291.5,480.8466411407588 L 314.5,421.0095723504028 L 337.5,431.30085102403444 L 360.5,421.23243832802655 L 383.5,90.54054054054058 L 406.5,426.0226424960588 L 429.5,476.6023236611472 L 452.5,474.91103060956004 L 475.5,471.94065681056634 L 498.5,469.38914549208664 L 521.5,485.500946813164 L 544.5,494.44812699903196 L 567.5,488.54708673713196 L 590.5,482.7786809404456 L 613.5,471.95843114960763 L 636.5,480.4684350640233 L 659.5,472.71934643258174 L 682.5,484.2534685436269 L 705.5,475.0299415740592 L 728.5,456.5856400415224"/><path style="fill:none;fill-rule:evenodd;stroke:#878787;stroke-width:3;stroke-linecap:butt;stroke-linejoin:miter;stroke-opacity:1;stroke-miterlimit:4;stroke-dasharray:none" d="M  61.5,490.85171423618823 L 84.5,491.0820457660107 L 107.5,491.69174325777834 L 130.5,491.30595277194544 L 153.5,491.8365772261417 L 176.5,490.2934981342787 L 199.5,491.17224697329334 L 222.5,491.1306700811084 L 245.5,489.3801693663826 L 268.5,491.76591900361694 L 291.5,491.5852732577139 L 314.5,492.52363822676324 L 337.5,491.1341181915277 L 360.5,490.35720253551136 L 383.5,490.6807679785621 L 406.5,490.71292643884226 L 429.5,490.7739858637766 L 452.5,490.50493828314814 L 475.5,489.6186286864313 L 498.5,490.6145811441343 L 521.5,490.4364585307034 L 544.5,490.1843797983504 L 567.5,491.429325864422 L 590.5,489.4377362102192 L 613.5,492.27923102991724 L 636.5,490.1440846753347 L 659.5,491.5642831472865 L 682.5,491.06124848416323 L 705.5,490.7550024613797 L 728.5,491.61354295333365"/></svg>