<?xml version="1.0" encoding="UTF-8"?>
<!DOCTYPE svg PUBLIC "-//W3C//DTD SVG 1.0//EN" "http://www.w3.org/TR/2001/REC-SVG-20010904/DTD/svg10.dtd"><svg contentScriptType="text/ecmascript" width="750" xmlns:xlink="http://www.w3.org/1999/xlink" zoomAndPan="magnify" contentStyleType="text/css" height="600" preserveAspectRatio="xMidYMid meet" xmlns="http://www.w3.org/2000/svg" version="1.0"><text x="20" y="70" style="font-size:14px;fill:black;font-family:Arial" text-anchor="middle">0.15</text><text x="20" y="310" style="font-size:14px;fill:black;font-family:Arial" text-anchor="middle">-0.4</text><text x="61.5" y="565" style="font-size:14px;fill:black;font-family:Arial" text-anchor="middle">-14</text><path style="fill:none;fill-rule:evenodd;stroke:#000000;stroke-width:1px;stroke-linecap:butt;stroke-linejoin:miter;stroke-opacity:1" d="M  72.0,570 L 72.0,550"/><text x="84.5" y="565" style="font-size:14px;fill:black;font-family:Arial" text-anchor="middle">-13</text><path style="fill:none;fill-rule:evenodd;stroke:#000000;stroke-width:1px;stroke-linecap:butt;stroke-linejoin:miter;stroke-opacity:1" d="M  95.0,570 L 95.0,550"/><text x="107.5" y="565" style="font-size:14px;fill:black;font-family:Arial" text-anchor="middle">-12</text><path style="fill:none;fill-rule:evenodd;stroke:#000000;stroke-width:1px;stroke-linecap:butt;stroke-linejoin:miter;stroke-opacity:1" d="M  118.0,570 L 118.0,550"/><text x="130.5" y="565" style="font-size:14px;fill:black;font-family:Arial" text-anchor="middle">-11</text><path style="fill:none;fill-rule:evenodd;stroke:#000000;stroke-width:1px;stroke-linecap:butt;stroke-linejoin:miter;stroke-opacity:1" d="M  141.0,570 L 141.0,550"/><text x="153.5" y="565" style="font-size:14px;fill:black;font-family:Arial" text-anchor="middle">-10</text><path style="fill:none;fill-rule:evenodd;stroke:#000000;stroke-width:1px;stroke-linecap:butt;stroke-linejoin:miter;stroke-opacity:1" d="M  164.0,570 L 164.0,550"/><text x="176.5" y="565" style="font-size:14px;fill:black;font-family:Arial" text-anchor="middle">-9</text><path style="fill:none;fill-rule:evenodd;stroke:#000000;stroke-width:1px;stroke-linecap:butt;stroke-linejoin:miter;stroke-opacity:1" d="M  187.0,570 L 187.0,550"/><text x="199.5" y="565" style="font-size:14px;fill:black;font-family:Arial" text-anchor="middle">-8</text><path style="fill:none;fill-rule:evenodd;stroke:#000000;stroke-width:1px;stroke-linecap:butt;stroke-linejoin:miter;stroke-opacity:1" d="M  210.0,570 L 210.0,550"/><text x="222.5" y="565" style="font-size:14px;fill:black;font-family:Arial" text-anchor="middle">-7</text><path style="fill:none;fill-rule:evenodd;stroke:#000000;stroke-width:1px;stroke-linecap:butt;stroke-linejoin:miter;stroke-opacity:1" d="M  233.0,570 L 233.0,550"/><text x="245.5" y="565" style="font-size:14px;fill:black;font-family:Arial" text-anchor="middle">-6</text><path style="fill:none;fill-rule:evenodd;stroke:#000000;stroke-width:1px;stroke-linecap:butt;stroke-linejoin:miter;stroke-opacity:1" d="M  256.0,570 L 256.0,550"/><text x="268.5" y="565" style="font-size:14px;fill:black;font-family:Arial" text-anchor="middle">-5</text><path style="fill:none;fill-rule:evenodd;stroke:#000000;stroke-width:1px;stroke-linecap:butt;stroke-linejoin:miter;stroke-opacity:1" d="M  279.0,570 L 279.0,550"/><text x="291.5" y="565" style="font-size:14px;fill:black;font-family:Arial" text-anchor="middle">-4</text><path style="fill:none;fill-rule:evenodd;stroke:#000000;stroke-width:1px;stroke-linecap:butt;stroke-linejoin:miter;stroke-opacity:1" d="M  302.0,570 L 302.0,550"/><text x="314.5" y="565" style="font-size:14px;fill:black;font-family:Arial" text-anchor="middle">-3</text><path style="fill:none;fill-rule:evenodd;stroke:#000000;stroke-width:1px;stroke-linecap:butt;stroke-linejoin:miter;stroke-opacity:1" d="M  325.0,570 L 325.0,550"/><text x="337.5" y="565" style="font-size:14px;fill:black;font-family:Arial" text-anchor="middle">-2</text><path style="fill:none;fill-rule:evenodd;stroke:#000000;stroke-width:1px;stroke-linecap:butt;stroke-linejoin:miter;stroke-opacity:1" d="M  348.0,570 L 348.0,550"/><text x="360.5" y="565" style="font-size:14px;fill:black;font-family:Arial" text-anchor="middle">-1</text><path style="fill:none;fill-rule:evenodd;stroke:#000000;stroke-width:1px;stroke-linecap:butt;stroke-linejoin:miter;stroke-opacity:1" d="M  371.0,570 L 371.0,550"/><text x="383.5" y="565" style="font-size:14px;fill:black;font-family:Arial" text-anchor="middle">0</text><path style="fill:none;fill-rule:evenodd;stroke:#000000;stroke-width:1px;stroke-linecap:butt;stroke-linejoin:miter;stroke-opacity:1" d="M  394.0,570 L 394.0,550"/><text x="406.5" y="565" style="font-size:14px;fill:black;font-family:Arial" text-anchor="middle">1</text><path style="fill:none;fill-rule:evenodd;stroke:#000000;stroke-width:1px;stroke-linecap:butt;stroke-linejoin:miter;stroke-opacity:1" d="M  417.0,570 L 417.0,550"/><text x="429.5" y="565" style="font-size:14px;fill:black;font-family:Arial" text-anchor="middle">2</text><path style="fill:none;fill-rule:evenodd;stroke:#000000;stroke-width:1px;stroke-linecap:butt;stroke-linejoin:miter;stroke-opacity:1" d="M  440.0,570 L 440.0,550"/><text x="452.5" y="565" style="font-size:14px;fill:black;font-family:Arial" text-anchor="middle">3</text><path style="fill:none;fill-rule:evenodd;stroke:#000000;stroke-width:1px;stroke-linecap:butt;stroke-linejoin:miter;stroke-opacity:1" d="M  463.0,570 L 463.0,550"/><text x="475.5" y="565" style="font-size:14px;fill:black;font-family:Arial" text-anchor="middle">4</text><path style="fill:none;fill-rule:evenodd;stroke:#000000;stroke-width:1px;stroke-linecap:butt;stroke-linejoin:miter;stroke-opacity:1" d="M  486.0,570 L 486.0,550"/><text x="498.5" y="565" style="font-size:14px;fill:black;font-family:Arial" text-anchor="middle">5</text><path style="fill:none;fill-rule:evenodd;stroke:#000000;stroke-width:1px;stroke-linecap:butt;stroke-linejoin:miter;stroke-opacity:1" d="M  509.0,570 L 509.0,550"/><text x="521.5" y="565" style="font-size:14px;fill:black;font-family:Arial" text-anchor="middle">6</text><path style="fill:none;fill-rule:evenodd;stroke:#000000;stroke-width:1px;stroke-linecap:butt;stroke-linejoin:miter;stroke-opacity:1" d="M  532.0,570 L 532.0,550"/><text x="544.5" y="565" style="font-size:14px;fill:black;font-family:Arial" text-anchor="middle">7</text><path style="fill:none;fill-rule:evenodd;stroke:#000000;stroke-width:1px;stroke-linecap:butt;stroke-linejoin:miter;stroke-opacity:1" d="M  555.0,570 L 555.0,550"/><text x="567.5" y="565" style="font-size:14px;fill:black;font-family:Arial" text-anchor="middle">8</text><path style="fill:none;fill-rule:evenodd;stroke:#000000;stroke-width:1px;stroke-linecap:butt;stroke-linejoin:miter;stroke-opacity:1" d="M  578.0,570 L 578.0,550"/><text x="590.5" y="565" style="font-size:14px;fill:black;font-family:Arial" text-anchor="middle">9</text><path style="fill:none;fill-rule:evenodd;stroke:#000000;stroke-width:1px;stroke-linecap:butt;stroke-linejoin:miter;stroke-opacity:1" d="M  601.0,570 L 601.0,550"/><text x="613.5" y="565" style="font-size:14px;fill:black;font-family:Arial" text-anchor="middle">10</text><path style="fill:none;fill-rule:evenodd;stroke:#000000;stroke-width:1px;stroke-linecap:butt;stroke-linejoin:miter;stroke-opacity:1" d="M  624.0,570 L 624.0,550"/><text x="636.5" y="565" style="font-size:14px;fill:black;font-family:Arial" text-anchor="middle">11</text><path style="fill:none;fill-rule:evenodd;stroke:#000000;stroke-width:1px;stroke-linecap:butt;stroke-linejoin:miter;stroke-opacity:1" d="M  647.0,570 L 647.0,550"/><text x="659.5" y="565" style="font-size:14px;fill:black;font-family:Arial" text-anchor="middle">12</text><path style="fill:none;fill-rule:evenodd;stroke:#000000;stroke-width:1px;stroke-linecap:butt;stroke-linejoin:miter;stroke-opacity:1" d="M  670.0,570 L 670.0,550"/><text x="682.5" y="565" style="font-size:14px;fill:black;font-family:Arial" text-anchor="middle">13</text><path style="fill:none;fill-rule:evenodd;stroke:#000000;stroke-width:1px;stroke-linecap:butt;stroke-linejoin:miter;stroke-opacity:1" d="M  693.0,570 L 693.0,550"/><text x="705.5" y="565" style="font-size:14px;fill:black;font-family:Arial" text-anchor="middle">14</text><path style="fill:none;fill-rule:evenodd;stroke:#000000;stroke-width:1px;stroke-linecap:butt;stroke-linejoin:miter;stroke-opacity:1" d="M  716.0,570 L 716.0,550"/><text x="728.5" y="565" style="font-size:14px;fill:black;font-family:Arial" text-anchor="middle">15</text><path style="fill:none;fill-rule:evenodd;stroke:#000000;stroke-width:1px;stroke-linecap:butt;stroke-linejoin:miter;stroke-opacity:1" d="M  739.0,570 L 739.0,550"/><rect x="49" width="1" y="50" height="520" style="fill:black"/><rect x="49" width="690.0" y="550" height="1" style="fill:black"/><rect x="49" width="690.0" y="570" height="1" style="fill:black"/><path style="fill:none;fill-rule:evenodd;stroke:#000000;stroke-width:1px;stroke-linecap:butt;stroke-linejoin:miter;stroke-opacity:1" d="M  44.5,54 L 49.5,50 L 54.5,54"/><path style="fill:none;fill-rule:evenodd;stroke:#000000;stroke-width:1px;stroke-linecap:butt;stroke-linejoin:miter;stroke-opacity:1" d="M  49,70 L 44,70 L 44,70"/><path style="fill:none;fill-rule:evenodd;stroke:#000000;stroke-width:1px;stroke-linecap:butt;stroke-linejoin:miter;stroke-opacity:1" d="M  49,310 L 44,310"/><text x="400" y="25" style="font-size:14px;fill:black;font-family:Arial" text-anchor="middle">Net charge (Klein et al., 1984)</text><path style="fill:#ed00b2;fill-rule:evenodd;stroke:#000000;stroke-width:0.9;stroke-linecap:butt;stroke-linejoin:miter;stroke-opacity:1;fill-opacity:1;opacity:0.27;stroke-miterlimit:4;stroke-dasharray:none" d="M  61.5,104.36975436965827 L 84.5,105.9597581427625 L 107.5,105.20905476512002 L 130.5,106.09917929540796 L 153.5,102.89596489095288 L 176.5,100.58301155725195 L 199.5,104.32211374640383 L 222.5,101.62225805854484 L 245.5,103.73801163003071 L 268.5,102.32463547396992 L 291.5,103.47832605100416 L 314.5,101.32140371580834 L 337.5,106.75349878211381 L 360.5,103.59161893755231 L 383.5,102.70669017518014 L 406.5,104.88478404791528 L 429.5,102.43000376896259 L 452.5,104.28940734457143 L 475.5,103.15644005018964 L 498.5,101.26565134354672 L 521.5,105.17598993855137 L 544.5,102.88109597722547 L 567.5,100.7669759314528 L 590.5,106.34119757753803 L 613.5,103.399094249055 L 636.5,103.61489554206736 L 659.5,101.7080657477893 L 682.5,104.63518731403968 L 705.5,104.03393526389527 L 728.5,106.29652377228814 L 728.5,134.9184617049923 L 705.5,136.7995211433315 L 682.5,133.601409938951 L 659.5,137.37774137080464 L 636.5,135.38475985103054 L 613.5,135.8836310992441 L 590.5,135.75991993341552 L 567.5,136.79271490692645 L 544.5,135.93394857552403 L 521.5,133.34367726964035 L 498.5,137.83246316440386 L 475.5,136.13859268746592 L 452.5,134.40256331461228 L 429.5,135.8312082627411 L 406.5,135.88713541252872 L 383.5,135.6899031394459 L 360.5,135.50649557039822 L 337.5,134.39994974838385 L 314.5,137.97362902184727 L 291.5,136.55515004804568 L 268.5,134.84121890499915 L 245.5,134.6831964633085 L 222.5,136.3558840179578 L 199.5,136.69595350117152 L 176.5,138.76125073783004 L 153.5,135.2914028046115 L 130.5,132.60509875313227 L 107.5,133.27369027500197 L 84.5,135.95674852784248 L 61.5,135.4544961103299 z "/><path style="fill:none;fill-rule:evenodd;stroke:#00ff00;stroke-width:3;stroke-linecap:butt;stroke-linejoin:miter;stroke-opacity:1;stroke-miterlimit:4;stroke-dasharray:none" d="M  61.5,143.41308521636387 L 84.5,140.33623787722144 L 107.5,142.1823462807069 L 130.5,144.6438241520209 L 153.5,145.87456308767776 L 176.5,139.72086840939295 L 199.5,154.48973563727662 L 222.5,157.566582976419 L 245.5,145.87456308767776 L 268.5,145.87456308767776 L 291.5,148.95141042682025 L 314.5,136.64402107025052 L 337.5,226.48796337320925 L 360.5,177.2584059469305 L 383.5,508.94254910648357 L 406.5,185.25820902870083 L 429.5,214.79594348446807 L 452.5,190.18116477132867 L 475.5,259.7179146359474 L 498.5,211.71909614532564 L 521.5,198.180967853099 L 544.5,198.79633732092748 L 567.5,161.8741692512184 L 590.5,129.87495692413722 L 613.5,104.02943927534085 L 636.5,108.33702555014031 L 659.5,108.95239501796874 L 682.5,97.26037512922761 L 705.5,92.33741938659972 L 728.5,92.33741938659972"/><path style="fill:none;fill-rule:evenodd;stroke:#ff0000;stroke-width:3;stroke-linecap:butt;stroke-linejoin:miter;stroke-opacity:1;stroke-miterlimit:4;stroke-dasharray:none" d="M  61.5,119.91212523999405 L 84.5,120.95825333530246 L 107.5,119.24137252006102 L 130.5,119.35213902427012 L 153.5,119.09368384778213 L 176.5,119.67213114754094 L 199.5,120.50903362378767 L 222.5,118.98907103825138 L 245.5,119.21060404666957 L 268.5,118.58292718948451 L 291.5,120.01673804952486 L 314.5,119.64751636882778 L 337.5,120.5767242652488 L 360.5,119.54905725397526 L 383.5,119.19829665731305 L 406.5,120.385959730222 L 429.5,119.13060601585192 L 452.5,119.34598532959183 L 475.5,119.64751636882778 L 498.5,119.54905725397526 L 521.5,119.25983360409589 L 544.5,119.40752227637472 L 567.5,118.77984541918966 L 590.5,121.0505587554768 L 613.5,119.64136267414955 L 636.5,119.499827696549 L 659.5,119.54290355929697 L 682.5,119.11829862649535 L 705.5,120.41672820361339 L 728.5,120.60749273864025"/></svg>